<?xml version="1.0" encoding="UTF-8" standalone="no"?>
<!DOCTYPE svg PUBLIC "-//W3C//DTD SVG 1.1//EN"
 "http://www.w3.org/Graphics/SVG/1.1/DTD/svg11.dtd">
<!-- Generated by graphviz version 15.0.0 (20260523.1842)
 -->
<!-- Title: callgraph Pages: 1 -->
<svg width="541pt" height="309pt"
 viewBox="0.00 0.00 541.00 309.00" xmlns="http://www.w3.org/2000/svg" xmlns:xlink="http://www.w3.org/1999/xlink">
<g id="graph0" class="graph" transform="scale(1 1) rotate(0) translate(14.4 294.4)">
<title>callgraph</title>
<polygon fill="white" stroke="none" points="-14.4,14.4 -14.4,-294.4 526.75,-294.4 526.75,14.4 -14.4,14.4"/>
<!-- Diff -->
<g id="node1" class="node">
<title>Diff</title>
<path fill="#e2e8f0" stroke="#94a3b8" stroke-width="1.5" d="M281.55,-158C281.55,-158 251.55,-158 251.55,-158 245.55,-158 239.55,-152 239.55,-146 239.55,-146 239.55,-134 239.55,-134 239.55,-128 245.55,-122 251.55,-122 251.55,-122 281.55,-122 281.55,-122 287.55,-122 293.55,-128 293.55,-134 293.55,-134 293.55,-146 293.55,-146 293.55,-152 287.55,-158 281.55,-158"/>
<text xml:space="preserve" text-anchor="middle" x="266.55" y="-136.3" font-family="Helvetica,sans-Serif" font-weight="bold" font-size="11.00" fill="#0f172a">Diff</text>
</g>
<!-- loadFilesBySnapshot -->
<g id="node6" class="node">
<title>loadFilesBySnapshot</title>
<path fill="#f8fafc" stroke="#cbd5e1" stroke-width="1.1" d="M489.1,-280C489.1,-280 371.8,-280 371.8,-280 365.8,-280 359.8,-274 359.8,-268 359.8,-268 359.8,-256 359.8,-256 359.8,-250 365.8,-244 371.8,-244 371.8,-244 489.1,-244 489.1,-244 495.1,-244 501.1,-250 501.1,-256 501.1,-256 501.1,-268 501.1,-268 501.1,-274 495.1,-280 489.1,-280"/>
<text xml:space="preserve" text-anchor="middle" x="430.45" y="-258.3" font-family="Helvetica,sans-Serif" font-size="11.00" fill="#334155">loadFilesBySnapshot</text>
</g>
<!-- Diff&#45;&gt;loadFilesBySnapshot -->
<g id="edge5" class="edge">
<title>Diff&#45;&gt;loadFilesBySnapshot</title>
<path fill="none" stroke="#94a3b8" d="M283.94,-158.62C307.61,-185.5 348.55,-232 348.55,-232 348.55,-232 359.18,-235.94 372.74,-240.97"/>
<polygon fill="#94a3b8" stroke="#94a3b8" points="371.82,-242.87 378.18,-242.99 373.28,-238.93 371.82,-242.87"/>
</g>
<!-- loadSymbolsBySnapshot -->
<g id="node7" class="node">
<title>loadSymbolsBySnapshot</title>
<path fill="#f8fafc" stroke="#cbd5e1" stroke-width="1.1" d="M500.35,-219C500.35,-219 360.55,-219 360.55,-219 354.55,-219 348.55,-213 348.55,-207 348.55,-207 348.55,-195 348.55,-195 348.55,-189 354.55,-183 360.55,-183 360.55,-183 500.35,-183 500.35,-183 506.35,-183 512.35,-189 512.35,-195 512.35,-195 512.35,-207 512.35,-207 512.35,-213 506.35,-219 500.35,-219"/>
<text xml:space="preserve" text-anchor="middle" x="430.45" y="-197.3" font-family="Helvetica,sans-Serif" font-size="11.00" fill="#334155">loadSymbolsBySnapshot</text>
</g>
<!-- Diff&#45;&gt;loadSymbolsBySnapshot -->
<g id="edge6" class="edge">
<title>Diff&#45;&gt;loadSymbolsBySnapshot</title>
<path fill="none" stroke="#94a3b8" d="M294.07,-150.15C317.7,-159.19 348.55,-171 348.55,-171 348.55,-171 359.18,-174.94 372.74,-179.97"/>
<polygon fill="#94a3b8" stroke="#94a3b8" points="371.82,-181.87 378.18,-181.99 373.28,-177.93 371.82,-181.87"/>
</g>
<!-- computeDiff -->
<g id="node8" class="node">
<title>computeDiff</title>
<path fill="#f8fafc" stroke="#cbd5e1" stroke-width="1.1" d="M466.23,-158C466.23,-158 394.68,-158 394.68,-158 388.68,-158 382.68,-152 382.68,-146 382.68,-146 382.68,-134 382.68,-134 382.68,-128 388.68,-122 394.68,-122 394.68,-122 466.23,-122 466.23,-122 472.23,-122 478.23,-128 478.23,-134 478.23,-134 478.23,-146 478.23,-146 478.23,-152 472.23,-158 466.23,-158"/>
<text xml:space="preserve" text-anchor="middle" x="430.45" y="-136.3" font-family="Helvetica,sans-Serif" font-size="11.00" fill="#334155">computeDiff</text>
</g>
<!-- Diff&#45;&gt;computeDiff -->
<g id="edge7" class="edge">
<title>Diff&#45;&gt;computeDiff</title>
<path fill="none" stroke="#94a3b8" d="M294.28,-140C316.21,-140 347.97,-140 375.19,-140"/>
<polygon fill="#94a3b8" stroke="#94a3b8" points="374.86,-142.1 380.86,-140 374.86,-137.9 374.86,-142.1"/>
</g>
<!-- DiffResult -->
<g id="node9" class="node">
<title>DiffResult</title>
<path fill="#f8fafc" stroke="#cbd5e1" stroke-width="1.1" d="M459.48,-97C459.48,-97 401.43,-97 401.43,-97 395.43,-97 389.43,-91 389.43,-85 389.43,-85 389.43,-73 389.43,-73 389.43,-67 395.43,-61 401.43,-61 401.43,-61 459.48,-61 459.48,-61 465.48,-61 471.48,-67 471.48,-73 471.48,-73 471.48,-85 471.48,-85 471.48,-91 465.48,-97 459.48,-97"/>
<text xml:space="preserve" text-anchor="middle" x="430.45" y="-75.3" font-family="Helvetica,sans-Serif" font-size="11.00" fill="#334155">DiffResult</text>
</g>
<!-- Diff&#45;&gt;DiffResult -->
<g id="edge8" class="edge">
<title>Diff&#45;&gt;DiffResult</title>
<path fill="none" stroke="#94a3b8" d="M294.28,-129.93C318.15,-120.94 353.64,-107.56 382.27,-96.78"/>
<polygon fill="#94a3b8" stroke="#94a3b8" points="382.73,-98.85 387.6,-94.77 381.25,-94.92 382.73,-98.85"/>
</g>
<!-- SnapshotMeta -->
<g id="node10" class="node">
<title>SnapshotMeta</title>
<path fill="#f8fafc" stroke="#cbd5e1" stroke-width="1.1" d="M472.23,-36C472.23,-36 388.68,-36 388.68,-36 382.68,-36 376.68,-30 376.68,-24 376.68,-24 376.68,-12 376.68,-12 376.68,-6 382.68,0 388.68,0 388.68,0 472.23,0 472.23,0 478.23,0 484.23,-6 484.23,-12 484.23,-12 484.23,-24 484.23,-24 484.23,-30 478.23,-36 472.23,-36"/>
<text xml:space="preserve" text-anchor="middle" x="430.45" y="-14.3" font-family="Helvetica,sans-Serif" font-size="11.00" fill="#334155">SnapshotMeta</text>
</g>
<!-- Diff&#45;&gt;SnapshotMeta -->
<g id="edge9" class="edge">
<title>Diff&#45;&gt;SnapshotMeta</title>
<path fill="none" stroke="#94a3b8" d="M283.94,-121.38C307.61,-94.5 348.55,-48 348.55,-48 348.55,-48 359.18,-44.06 372.74,-39.03"/>
<polygon fill="#94a3b8" stroke="#94a3b8" points="373.28,-41.07 378.18,-37.01 371.82,-37.13 373.28,-41.07"/>
</g>
<!-- Churn -->
<g id="node2" class="node">
<title>Churn</title>
<path fill="#f8fafc" stroke="#cbd5e1" stroke-width="1.1" d="M97.42,-250C97.42,-250 60.37,-250 60.37,-250 54.37,-250 48.37,-244 48.37,-238 48.37,-238 48.37,-226 48.37,-226 48.37,-220 54.37,-214 60.37,-214 60.37,-214 97.42,-214 97.42,-214 103.42,-214 109.42,-220 109.42,-226 109.42,-226 109.42,-238 109.42,-238 109.42,-244 103.42,-250 97.42,-250"/>
<text xml:space="preserve" text-anchor="middle" x="78.9" y="-228.3" font-family="Helvetica,sans-Serif" font-size="11.00" fill="#334155">Churn</text>
</g>
<!-- Churn&#45;&gt;Diff -->
<g id="edge1" class="edge">
<title>Churn&#45;&gt;Diff</title>
<path fill="none" stroke="#94a3b8" d="M109.8,-220.49C131.76,-212.03 157.8,-202 157.8,-202 157.8,-202 201.05,-177.11 232.75,-158.88"/>
<polygon fill="#94a3b8" stroke="#94a3b8" points="233.45,-160.89 237.6,-156.08 231.36,-157.25 233.45,-160.89"/>
</g>
<!-- diff -->
<g id="node3" class="node">
<title>diff</title>
<path fill="#f8fafc" stroke="#cbd5e1" stroke-width="1.1" d="M93.9,-189C93.9,-189 63.9,-189 63.9,-189 57.9,-189 51.9,-183 51.9,-177 51.9,-177 51.9,-165 51.9,-165 51.9,-159 57.9,-153 63.9,-153 63.9,-153 93.9,-153 93.9,-153 99.9,-153 105.9,-159 105.9,-165 105.9,-165 105.9,-177 105.9,-177 105.9,-183 99.9,-189 93.9,-189"/>
<text xml:space="preserve" text-anchor="middle" x="78.9" y="-167.3" font-family="Helvetica,sans-Serif" font-size="11.00" fill="#334155">diff</text>
</g>
<!-- diff&#45;&gt;Diff -->
<g id="edge2" class="edge">
<title>diff&#45;&gt;Diff</title>
<path fill="none" stroke="#94a3b8" d="M106.11,-166.62C138.95,-161.14 195.32,-151.73 231.48,-145.69"/>
<polygon fill="#94a3b8" stroke="#94a3b8" points="231.81,-147.76 237.38,-144.7 231.12,-143.62 231.81,-147.76"/>
</g>
<!-- runDiff -->
<g id="node4" class="node">
<title>runDiff</title>
<path fill="#f8fafc" stroke="#cbd5e1" stroke-width="1.1" d="M99.67,-128C99.67,-128 58.12,-128 58.12,-128 52.12,-128 46.12,-122 46.12,-116 46.12,-116 46.12,-104 46.12,-104 46.12,-98 52.12,-92 58.12,-92 58.12,-92 99.67,-92 99.67,-92 105.67,-92 111.67,-98 111.67,-104 111.67,-104 111.67,-116 111.67,-116 111.67,-122 105.67,-128 99.67,-128"/>
<text xml:space="preserve" text-anchor="middle" x="78.9" y="-106.3" font-family="Helvetica,sans-Serif" font-size="11.00" fill="#334155">runDiff</text>
</g>
<!-- runDiff&#45;&gt;Diff -->
<g id="edge3" class="edge">
<title>runDiff&#45;&gt;Diff</title>
<path fill="none" stroke="#94a3b8" d="M111.81,-115.16C145.3,-120.57 197.73,-129.04 231.87,-134.56"/>
<polygon fill="#94a3b8" stroke="#94a3b8" points="231.11,-136.56 237.37,-135.45 231.78,-132.42 231.11,-136.56"/>
</g>
<!-- TestRepoScopedHistory -->
<g id="node5" class="node">
<title>TestRepoScopedHistory</title>
<path fill="#f8fafc" stroke="#cbd5e1" stroke-width="1.1" d="M145.8,-67C145.8,-67 12,-67 12,-67 6,-67 0,-61 0,-55 0,-55 0,-43 0,-43 0,-37 6,-31 12,-31 12,-31 145.8,-31 145.8,-31 151.8,-31 157.8,-37 157.8,-43 157.8,-43 157.8,-55 157.8,-55 157.8,-61 151.8,-67 145.8,-67"/>
<text xml:space="preserve" text-anchor="middle" x="78.9" y="-45.3" font-family="Helvetica,sans-Serif" font-size="11.00" fill="#334155">TestRepoScopedHistory</text>
</g>
<!-- TestRepoScopedHistory&#45;&gt;Diff -->
<g id="edge4" class="edge">
<title>TestRepoScopedHistory&#45;&gt;Diff</title>
<path fill="none" stroke="#94a3b8" stroke-dasharray="5,2" d="M126.12,-67.39C142.89,-74.07 157.8,-80 157.8,-80 157.8,-80 212.55,-104.75 212.55,-104.75 212.55,-104.75 221.98,-111.02 232.89,-118.28"/>
<polygon fill="#94a3b8" stroke="#94a3b8" points="231.63,-119.96 237.79,-121.54 233.96,-116.47 231.63,-119.96"/>
<text xml:space="preserve" text-anchor="middle" x="198.68" y="-108.7" font-family="Times,serif" font-size="14.00">test</text>
</g>
</g>
</svg>
