<?xml version="1.0" encoding="UTF-8" standalone="no"?>
<!DOCTYPE svg PUBLIC "-//W3C//DTD SVG 1.1//EN"
 "http://www.w3.org/Graphics/SVG/1.1/DTD/svg11.dtd">
<!-- Generated by graphviz version 15.0.0 (20260523.1842)
 -->
<!-- Title: callgraph Pages: 1 -->
<svg width="459pt" height="260pt"
 viewBox="0.00 0.00 459.00 260.00" xmlns="http://www.w3.org/2000/svg" xmlns:xlink="http://www.w3.org/1999/xlink">
<g id="graph0" class="graph" transform="scale(1 1) rotate(0) translate(4 256)">
<title>callgraph</title>
<polygon fill="white" stroke="none" points="-4,4 -4,-256 454.75,-256 454.75,4 -4,4"/>
<!-- Diff -->
<g id="node1" class="node">
<title>Diff</title>
<path fill="#c7d2fe" stroke="black" d="M250.75,-144C250.75,-144 220.75,-144 220.75,-144 214.75,-144 208.75,-138 208.75,-132 208.75,-132 208.75,-120 208.75,-120 208.75,-114 214.75,-108 220.75,-108 220.75,-108 250.75,-108 250.75,-108 256.75,-108 262.75,-114 262.75,-120 262.75,-120 262.75,-132 262.75,-132 262.75,-138 256.75,-144 250.75,-144"/>
<text xml:space="preserve" text-anchor="middle" x="235.75" y="-122.3" font-family="Helvetica,sans-Serif" font-weight="bold" font-size="11.00">Diff</text>
</g>
<!-- loadFilesBySnapshot -->
<g id="node6" class="node">
<title>loadFilesBySnapshot</title>
<path fill="#eef2ff" stroke="black" d="M427.5,-252C427.5,-252 323,-252 323,-252 317,-252 311,-246 311,-240 311,-240 311,-228 311,-228 311,-222 317,-216 323,-216 323,-216 427.5,-216 427.5,-216 433.5,-216 439.5,-222 439.5,-228 439.5,-228 439.5,-240 439.5,-240 439.5,-246 433.5,-252 427.5,-252"/>
<text xml:space="preserve" text-anchor="middle" x="375.25" y="-230.3" font-family="Helvetica,sans-Serif" font-size="11.00">loadFilesBySnapshot</text>
</g>
<!-- Diff&#45;&gt;loadFilesBySnapshot -->
<g id="edge5" class="edge">
<title>Diff&#45;&gt;loadFilesBySnapshot</title>
<path fill="none" stroke="#6366f1" d="M246.75,-144.22C257.61,-162.44 276.55,-190.13 299.75,-207 301.98,-208.62 304.31,-210.15 306.72,-211.59"/>
<polygon fill="#6366f1" stroke="#6366f1" points="305.5,-213.72 312.82,-214.95 307.87,-209.43 305.5,-213.72"/>
</g>
<!-- loadSymbolsBySnapshot -->
<g id="node7" class="node">
<title>loadSymbolsBySnapshot</title>
<path fill="#eef2ff" stroke="black" d="M438.75,-198C438.75,-198 311.75,-198 311.75,-198 305.75,-198 299.75,-192 299.75,-186 299.75,-186 299.75,-174 299.75,-174 299.75,-168 305.75,-162 311.75,-162 311.75,-162 438.75,-162 438.75,-162 444.75,-162 450.75,-168 450.75,-174 450.75,-174 450.75,-186 450.75,-186 450.75,-192 444.75,-198 438.75,-198"/>
<text xml:space="preserve" text-anchor="middle" x="375.25" y="-176.3" font-family="Helvetica,sans-Serif" font-size="11.00">loadSymbolsBySnapshot</text>
</g>
<!-- Diff&#45;&gt;loadSymbolsBySnapshot -->
<g id="edge6" class="edge">
<title>Diff&#45;&gt;loadSymbolsBySnapshot</title>
<path fill="none" stroke="#6366f1" d="M262.97,-137.64C274.23,-142.53 287.58,-148.19 299.75,-153 304.54,-154.89 309.51,-156.81 314.53,-158.7"/>
<polygon fill="#6366f1" stroke="#6366f1" points="313.57,-160.96 320.99,-161.11 315.29,-156.37 313.57,-160.96"/>
</g>
<!-- computeDiff -->
<g id="node8" class="node">
<title>computeDiff</title>
<path fill="#eef2ff" stroke="black" d="M404.62,-144C404.62,-144 345.88,-144 345.88,-144 339.88,-144 333.88,-138 333.88,-132 333.88,-132 333.88,-120 333.88,-120 333.88,-114 339.88,-108 345.88,-108 345.88,-108 404.62,-108 404.62,-108 410.62,-108 416.62,-114 416.62,-120 416.62,-120 416.62,-132 416.62,-132 416.62,-138 410.62,-144 404.62,-144"/>
<text xml:space="preserve" text-anchor="middle" x="375.25" y="-122.3" font-family="Helvetica,sans-Serif" font-size="11.00">computeDiff</text>
</g>
<!-- Diff&#45;&gt;computeDiff -->
<g id="edge7" class="edge">
<title>Diff&#45;&gt;computeDiff</title>
<path fill="none" stroke="#6366f1" d="M262.94,-126C280.47,-126 304.09,-126 325.06,-126"/>
<polygon fill="#6366f1" stroke="#6366f1" points="325.04,-128.45 332.04,-126 325.04,-123.55 325.04,-128.45"/>
</g>
<!-- DiffResult -->
<g id="node9" class="node">
<title>DiffResult</title>
<path fill="#eef2ff" stroke="black" d="M397.88,-90C397.88,-90 352.62,-90 352.62,-90 346.62,-90 340.62,-84 340.62,-78 340.62,-78 340.62,-66 340.62,-66 340.62,-60 346.62,-54 352.62,-54 352.62,-54 397.88,-54 397.88,-54 403.88,-54 409.88,-60 409.88,-66 409.88,-66 409.88,-78 409.88,-78 409.88,-84 403.88,-90 397.88,-90"/>
<text xml:space="preserve" text-anchor="middle" x="375.25" y="-68.3" font-family="Helvetica,sans-Serif" font-size="11.00">DiffResult</text>
</g>
<!-- Diff&#45;&gt;DiffResult -->
<g id="edge8" class="edge">
<title>Diff&#45;&gt;DiffResult</title>
<path fill="none" stroke="#6366f1" d="M262.97,-114.36C274.23,-109.47 287.58,-103.81 299.75,-99 310.25,-94.85 321.68,-90.59 332.36,-86.71"/>
<polygon fill="#6366f1" stroke="#6366f1" points="333.17,-89.02 338.92,-84.34 331.51,-84.41 333.17,-89.02"/>
</g>
<!-- SnapshotMeta -->
<g id="node10" class="node">
<title>SnapshotMeta</title>
<path fill="#eef2ff" stroke="black" d="M410.62,-36C410.62,-36 339.88,-36 339.88,-36 333.88,-36 327.88,-30 327.88,-24 327.88,-24 327.88,-12 327.88,-12 327.88,-6 333.88,0 339.88,0 339.88,0 410.62,0 410.62,0 416.62,0 422.62,-6 422.62,-12 422.62,-12 422.62,-24 422.62,-24 422.62,-30 416.62,-36 410.62,-36"/>
<text xml:space="preserve" text-anchor="middle" x="375.25" y="-14.3" font-family="Helvetica,sans-Serif" font-size="11.00">SnapshotMeta</text>
</g>
<!-- Diff&#45;&gt;SnapshotMeta -->
<g id="edge9" class="edge">
<title>Diff&#45;&gt;SnapshotMeta</title>
<path fill="none" stroke="#6366f1" d="M246.75,-107.78C257.61,-89.56 276.55,-61.87 299.75,-45 305.88,-40.54 312.82,-36.76 319.94,-33.55"/>
<polygon fill="#6366f1" stroke="#6366f1" points="320.79,-35.85 326.3,-30.89 318.9,-31.33 320.79,-35.85"/>
</g>
<!-- Churn -->
<g id="node2" class="node">
<title>Churn</title>
<path fill="#eef2ff" stroke="black" d="M87.5,-225C87.5,-225 57.5,-225 57.5,-225 51.5,-225 45.5,-219 45.5,-213 45.5,-213 45.5,-201 45.5,-201 45.5,-195 51.5,-189 57.5,-189 57.5,-189 87.5,-189 87.5,-189 93.5,-189 99.5,-195 99.5,-201 99.5,-201 99.5,-213 99.5,-213 99.5,-219 93.5,-225 87.5,-225"/>
<text xml:space="preserve" text-anchor="middle" x="72.5" y="-203.3" font-family="Helvetica,sans-Serif" font-size="11.00">Churn</text>
</g>
<!-- Churn&#45;&gt;Diff -->
<g id="edge1" class="edge">
<title>Churn&#45;&gt;Diff</title>
<path fill="none" stroke="#6366f1" d="M99.79,-198.36C113.51,-193.52 130.43,-187.06 145,-180 164.33,-170.63 184.93,-158.41 201.51,-147.97"/>
<polygon fill="#6366f1" stroke="#6366f1" points="202.49,-150.25 207.08,-144.42 199.86,-146.11 202.49,-150.25"/>
</g>
<!-- diff -->
<g id="node3" class="node">
<title>diff</title>
<path fill="#eef2ff" stroke="black" d="M87.5,-171C87.5,-171 57.5,-171 57.5,-171 51.5,-171 45.5,-165 45.5,-159 45.5,-159 45.5,-147 45.5,-147 45.5,-141 51.5,-135 57.5,-135 57.5,-135 87.5,-135 87.5,-135 93.5,-135 99.5,-141 99.5,-147 99.5,-147 99.5,-159 99.5,-159 99.5,-165 93.5,-171 87.5,-171"/>
<text xml:space="preserve" text-anchor="middle" x="72.5" y="-149.3" font-family="Helvetica,sans-Serif" font-size="11.00">diff</text>
</g>
<!-- diff&#45;&gt;Diff -->
<g id="edge2" class="edge">
<title>diff&#45;&gt;Diff</title>
<path fill="none" stroke="#6366f1" d="M99.77,-148.6C127.18,-144.01 170.27,-136.8 200.37,-131.76"/>
<polygon fill="#6366f1" stroke="#6366f1" points="200.5,-134.22 207,-130.65 199.69,-129.39 200.5,-134.22"/>
</g>
<!-- runDiff -->
<g id="node4" class="node">
<title>runDiff</title>
<path fill="#eef2ff" stroke="black" d="M87.5,-117C87.5,-117 57.5,-117 57.5,-117 51.5,-117 45.5,-111 45.5,-105 45.5,-105 45.5,-93 45.5,-93 45.5,-87 51.5,-81 57.5,-81 57.5,-81 87.5,-81 87.5,-81 93.5,-81 99.5,-87 99.5,-93 99.5,-93 99.5,-105 99.5,-105 99.5,-111 93.5,-117 87.5,-117"/>
<text xml:space="preserve" text-anchor="middle" x="72.5" y="-95.3" font-family="Helvetica,sans-Serif" font-size="11.00">runDiff</text>
</g>
<!-- runDiff&#45;&gt;Diff -->
<g id="edge3" class="edge">
<title>runDiff&#45;&gt;Diff</title>
<path fill="none" stroke="#6366f1" d="M99.77,-103.4C127.18,-107.99 170.27,-115.2 200.37,-120.24"/>
<polygon fill="#6366f1" stroke="#6366f1" points="199.69,-122.61 207,-121.35 200.5,-117.78 199.69,-122.61"/>
</g>
<!-- TestRepoScopedHistory -->
<g id="node5" class="node">
<title>TestRepoScopedHistory</title>
<path fill="#eef2ff" stroke="black" d="M133,-63C133,-63 12,-63 12,-63 6,-63 0,-57 0,-51 0,-51 0,-39 0,-39 0,-33 6,-27 12,-27 12,-27 133,-27 133,-27 139,-27 145,-33 145,-39 145,-39 145,-51 145,-51 145,-57 139,-63 133,-63"/>
<text xml:space="preserve" text-anchor="middle" x="72.5" y="-41.3" font-family="Helvetica,sans-Serif" font-size="11.00">TestRepoScopedHistory</text>
</g>
<!-- TestRepoScopedHistory&#45;&gt;Diff -->
<g id="edge4" class="edge">
<title>TestRepoScopedHistory&#45;&gt;Diff</title>
<path fill="none" stroke="#6366f1" stroke-dasharray="5,2" d="M128.53,-63.5C148.73,-71.29 171.39,-81.24 190.75,-92.75 195.84,-95.78 201.04,-99.28 206,-102.86"/>
<polygon fill="#6366f1" stroke="#6366f1" points="204.29,-104.64 211.37,-106.84 207.21,-100.7 204.29,-104.64"/>
<text xml:space="preserve" text-anchor="middle" x="176.88" y="-96.7" font-family="Times,serif" font-size="14.00">test</text>
</g>
</g>
</svg>
